<svg width="14" height="14" viewBox="0 0 14 14" fill="none" xmlns="http://www.w3.org/2000/svg">
<path d="M7 0.5C3.41594 0.5 0.5 3.41594 0.5 7C0.5 10.5841 3.41594 13.5 7 13.5C10.5841 13.5 13.5 10.5841 13.5 7C13.5 3.41594 10.5841 0.5 7 0.5ZM7 10.4972C6.87639 10.4972 6.75555 10.4605 6.65277 10.3919C6.54999 10.3232 6.46988 10.2256 6.42258 10.1114C6.37527 9.99716 6.36289 9.87149 6.38701 9.75026C6.41113 9.62902 6.47065 9.51765 6.55806 9.43025C6.64547 9.34284 6.75683 9.28331 6.87807 9.2592C6.99931 9.23508 7.12497 9.24746 7.23918 9.29476C7.35338 9.34207 7.45099 9.42218 7.51967 9.52496C7.58834 9.62774 7.625 9.74858 7.625 9.87219C7.625 10.0379 7.55915 10.1969 7.44194 10.3141C7.32473 10.4313 7.16576 10.4972 7 10.4972ZM7.67875 4.21125L7.49938 8.02375C7.49938 8.15636 7.4467 8.28354 7.35293 8.3773C7.25916 8.47107 7.13198 8.52375 6.99938 8.52375C6.86677 8.52375 6.73959 8.47107 6.64582 8.3773C6.55205 8.28354 6.49938 8.15636 6.49938 8.02375L6.32 4.21313V4.21156C6.31607 4.11998 6.33071 4.02854 6.36305 3.94277C6.39539 3.85699 6.44475 3.77865 6.50817 3.71245C6.57158 3.64626 6.64774 3.59358 6.73205 3.55759C6.81636 3.52161 6.90708 3.50305 6.99875 3.50305C7.09042 3.50305 7.18114 3.52161 7.26545 3.55759C7.34976 3.59358 7.42592 3.64626 7.48933 3.71245C7.55275 3.77865 7.60211 3.85699 7.63445 3.94277C7.66679 4.02854 7.68143 4.11998 7.6775 4.21156L7.67875 4.21125Z" fill="#FF4747"/>
</svg>
