<svg width="24" height="24" viewBox="0 0 24 24" fill="none" xmlns="http://www.w3.org/2000/svg">
<path fill-rule="evenodd" clip-rule="evenodd" d="M2.15924 2.25L21.8449 2.25C22.1138 2.25042 22.3769 2.32791 22.6031 2.47327C22.8292 2.61863 23.009 2.82579 23.121 3.07018C23.2331 3.31457 23.2727 3.58596 23.2353 3.85219C23.1978 4.11838 23.0849 4.36825 22.9098 4.57222C22.9097 4.57225 22.9097 4.57229 22.9097 4.57232L15.0066 13.7803C15.0047 13.7826 15.0027 13.7848 15.0008 13.7871C15.0004 13.7875 15.0001 13.7881 15 13.7887V20.6234C15.0006 20.8008 14.9592 20.9759 14.879 21.1343C14.7984 21.2935 14.6809 21.4313 14.5363 21.5361C14.3918 21.6408 14.2243 21.7096 14.0478 21.7366C13.8716 21.7636 13.6915 21.7482 13.5224 21.6918C13.5222 21.6917 13.5219 21.6916 13.5216 21.6915L9.76587 20.4418L9.76248 20.4407C9.53844 20.3649 9.34407 20.2203 9.20714 20.0275C9.07111 19.8359 8.99868 19.6065 9.00001 19.3717V13.7862C8.99994 13.7855 8.99967 13.7849 8.99922 13.7844C8.99808 13.7831 8.99694 13.7817 8.9958 13.7804L1.09036 4.57232C1.09035 4.57232 1.09036 4.57233 1.09036 4.57232C0.914948 4.36802 0.801864 4.11763 0.764582 3.85095C0.727299 3.58426 0.76737 3.31248 0.880034 3.0679C0.992698 2.82331 1.17322 2.61622 1.40013 2.47124C1.62681 2.32641 1.89026 2.24963 2.15924 2.25ZM2.36134 3.75L10.1325 12.8017C10.3671 13.0723 10.4975 13.4178 10.5 13.776C10.5 13.7777 10.5 13.7795 10.5 13.7813V19.1052L13.5 20.1035V13.7813C13.5 13.7801 13.5 13.779 13.5 13.7778C13.5 13.7763 13.5 13.7748 13.5001 13.7733C13.5039 13.4152 13.6353 13.0703 13.8708 12.8006L21.6387 3.75H2.36134Z" fill="#707070"/>
</svg>
