<svg width="24" height="24" viewBox="0 0 24 24" fill="none" xmlns="http://www.w3.org/2000/svg">
<path d="M21.3094 18.7069L13.3205 3.87094C12.7542 2.81906 11.2458 2.81906 10.6791 3.87094L2.69062 18.7069C2.56767 18.9352 2.50603 19.1916 2.51171 19.4508C2.5174 19.7101 2.59021 19.9635 2.72305 20.1863C2.85588 20.409 3.0442 20.5935 3.26962 20.7217C3.49504 20.85 3.74986 20.9176 4.00921 20.918H19.9884C20.248 20.918 20.5031 20.8507 20.7288 20.7226C20.9546 20.5945 21.1432 20.4101 21.2763 20.1873C21.4094 19.9644 21.4825 19.7109 21.4883 19.4514C21.494 19.1919 21.4324 18.9354 21.3094 18.7069ZM12 18.6211C11.8146 18.6211 11.6333 18.5661 11.4791 18.4631C11.325 18.3601 11.2048 18.2137 11.1339 18.0424C11.0629 17.8711 11.0443 17.6826 11.0805 17.5007C11.1167 17.3188 11.206 17.1518 11.3371 17.0207C11.4682 16.8896 11.6352 16.8003 11.8171 16.7641C11.999 16.7279 12.1875 16.7465 12.3588 16.8175C12.5301 16.8884 12.6765 17.0086 12.7795 17.1627C12.8825 17.3169 12.9375 17.4982 12.9375 17.6836C12.9375 17.9322 12.8387 18.1707 12.6629 18.3465C12.4871 18.5223 12.2486 18.6211 12 18.6211ZM13.0181 9.19219L12.7491 14.9109C12.7491 15.1098 12.67 15.3006 12.5294 15.4413C12.3887 15.5819 12.198 15.6609 11.9991 15.6609C11.8001 15.6609 11.6094 15.5819 11.4687 15.4413C11.3281 15.3006 11.2491 15.1098 11.2491 14.9109L10.98 9.19453C10.9739 9.05793 10.9955 8.92151 11.0433 8.79341C11.0911 8.6653 11.1642 8.54813 11.2582 8.44888C11.3523 8.34963 11.4653 8.27033 11.5907 8.2157C11.716 8.16108 11.8511 8.13225 11.9878 8.13094H11.9976C12.1353 8.13087 12.2716 8.15869 12.3982 8.21272C12.5248 8.26675 12.6391 8.34587 12.7343 8.44531C12.8295 8.54475 12.9036 8.66245 12.952 8.7913C13.0005 8.92015 13.0223 9.05748 13.0162 9.195L13.0181 9.19219Z" fill="#0069e8"/>
</svg>
